<svg width="12" height="16" viewBox="0 0 12 16" fill="none" xmlns="http://www.w3.org/2000/svg">
<path d="M4.58933 8.01733C3.474 5.70067 2.17667 3.01467 1.86267 2.36133C1.27 1.12933 2.826 -4.01008e-07 2.826 -4.01008e-07L5.64333 5.84067L4.58933 8.01733ZM1.33719e-07 13.304C1.5371e-07 12.8467 0.102667 12.3753 0.319334 11.928C0.946667 10.6327 2.32 9.95933 3.55533 10.2627C4.26 10.436 4.356 10.0653 4.63 9.49933L9.20733 0.0399999C9.20733 0.0399999 10.76 1.17333 10.1647 2.404C9.79867 3.16 8.33333 6.19667 7.064 8.81333L7.38 9.47C7.65267 10.0367 7.748 10.4073 8.45267 10.236C9.68933 9.93533 11.0613 10.612 11.6847 11.9093C11.8987 12.3553 12 12.8247 12 13.2787C12 14.8193 10.8693 15.9753 9.466 15.9753C8.41133 15.9753 7.362 15.318 6.81733 14.2333C6.27333 13.15 6.69733 12.39 6.174 11.3133L6.01067 10.9773L5.83067 11.3453C5.30467 12.4207 5.72667 13.1813 5.18 14.2633C4.634 15.346 3.58533 16 2.53333 16C1.128 16 6.65496e-08 14.8407 1.33719e-07 13.304V13.304ZM8.54333 11.6007C7.862 11.9267 7.62467 12.8513 8.01467 13.662C8.404 14.4733 9.27667 14.868 9.95867 14.5427C10.64 14.2167 10.878 13.292 10.488 12.4807C10.098 11.6693 9.22533 11.2753 8.54333 11.6007V11.6007ZM6.12667 9.172C6.40267 9.172 6.62667 8.94867 6.62667 8.672C6.62667 8.396 6.40267 8.172 6.12667 8.172C5.85067 8.172 5.62667 8.396 5.62667 8.672C5.62667 8.948 5.85067 9.172 6.12667 9.172ZM3.98467 13.69C4.37667 12.88 4.142 11.954 3.46067 11.6267C2.77933 11.2993 1.906 11.692 1.51467 12.502C1.12267 13.312 1.358 14.2373 2.03933 14.5647C2.72 14.8927 3.59267 14.5 3.98467 13.69Z" fill="white"/>
</svg>
