<svg width="453" height="300" viewBox="0 0 453 300" fill="none" xmlns="http://www.w3.org/2000/svg">
<path fill-rule="evenodd" clip-rule="evenodd" d="M6.12372 69.6446L243.187 6.12372L257.516 59.6H262.692L248.017 4.82963L246.723 0L241.893 1.2941L4.82963 64.815L0 66.1091L1.2941 70.9387L61.3768 295.17L62.6709 300L67.5005 298.706L304.564 235.185L309.393 233.891L308.099 229.061L301.833 205.675H296.657L303.27 230.355L66.2064 293.876L6.12372 69.6446Z" fill="white"/>
<g filter="url(#filter0_d)">
<path d="M299.973 175.232C258.965 189.335 211.41 205.756 199.846 209.725C178.039 217.217 162.225 188.878 162.225 188.878L265.625 153.231L299.973 175.232ZM379.36 262.701C371.703 261.792 364.015 259.134 356.956 254.612C336.516 241.518 327.974 217.148 335.511 197.033C339.816 185.56 333.8 183.213 324.868 177.494L175.592 81.9369C175.592 81.9369 197.658 58.1486 217.079 70.5776C229.009 78.2175 276.938 108.825 318.225 135.311L329.849 131.315C339.88 127.868 346.276 127.006 344.809 114.848C342.235 93.5103 356.295 71.8448 379.258 63.9681C387.151 61.2651 395.211 60.498 402.813 61.3999C428.609 64.4604 445.715 85.719 442.923 109.254C440.824 126.942 427.73 143.234 408.485 150.214C389.264 157.186 377.382 148.565 358.314 155.203L352.363 157.275L358.166 161.024C375.125 171.982 388.701 166.416 405.73 177.733C422.771 189.041 431.635 207.927 429.542 225.57C426.745 249.139 405.09 265.753 379.36 262.701V262.701ZM367.839 116.038C371.942 128.112 386.952 133.929 401.301 128.999C415.661 124.081 424.005 110.23 419.915 98.1457C415.812 86.0716 400.803 80.2433 386.443 85.1722C372.082 90.1012 363.749 103.954 367.839 116.038V116.038ZM322.366 151.743C322.915 147.114 319.621 142.914 314.989 142.364C310.367 141.816 306.171 145.128 305.622 149.756C305.073 154.385 308.378 158.587 312.999 159.135C317.62 159.683 321.817 156.372 322.366 151.743ZM393.752 196.641C380.969 188.458 364.998 190.554 358.161 201.33C351.325 212.107 356.162 227.533 368.945 235.705C381.728 243.889 397.69 241.78 404.526 231.004C411.372 220.24 406.534 204.824 393.752 196.641Z" fill="#76D6FF"/>
</g>
<defs>
<filter id="filter0_d" x="152.602" y="35.0219" width="299.775" height="241.034" filterUnits="userSpaceOnUse" color-interpolation-filters="sRGB">
<feFlood flood-opacity="0" result="BackgroundImageFix"/>
<feColorMatrix in="SourceAlpha" type="matrix" values="0 0 0 0 0 0 0 0 0 0 0 0 0 0 0 0 0 0 127 0"/>
<feOffset dy="4"/>
<feGaussianBlur stdDeviation="2"/>
<feColorMatrix type="matrix" values="0 0 0 0 0 0 0 0 0 0 0 0 0 0 0 0 0 0 0.25 0"/>
<feBlend mode="normal" in2="BackgroundImageFix" result="effect1_dropShadow"/>
<feBlend mode="normal" in="SourceGraphic" in2="effect1_dropShadow" result="shape"/>
</filter>
</defs>
</svg>
